<mxfile host="app.diagrams.net" modified="2022-07-28T06:29:21.744Z" agent="5.0 (Windows NT 10.0; Win64; x64) AppleWebKit/537.36 (KHTML, like Gecko) Chrome/103.0.0.0 Safari/537.36" etag="KgemczRR0FGlxZl4IQoj" version="20.2.2" type="github">
  <diagram id="C5RBs43oDa-KdzZeNtuy" name="Page-1">
    <mxGraphModel dx="1718" dy="955" grid="1" gridSize="10" guides="1" tooltips="1" connect="1" arrows="1" fold="1" page="1" pageScale="1" pageWidth="827" pageHeight="1169" math="0" shadow="0">
      <root>
        <mxCell id="WIyWlLk6GJQsqaUBKTNV-0" />
        <mxCell id="WIyWlLk6GJQsqaUBKTNV-1" parent="WIyWlLk6GJQsqaUBKTNV-0" />
        <mxCell id="aoPp3APWdgzhh4fO1Ms5-3" style="rounded=0;orthogonalLoop=1;jettySize=auto;html=1;entryX=0;entryY=0.5;entryDx=0;entryDy=0;exitX=1;exitY=0.5;exitDx=0;exitDy=0;" parent="WIyWlLk6GJQsqaUBKTNV-1" source="H1HYzyUc5aPbJVuiqZQ_-29" target="aoPp3APWdgzhh4fO1Ms5-2" edge="1">
          <mxGeometry relative="1" as="geometry">
            <mxPoint x="326" y="250" as="sourcePoint" />
          </mxGeometry>
        </mxCell>
        <mxCell id="aoPp3APWdgzhh4fO1Ms5-6" style="rounded=0;orthogonalLoop=1;jettySize=auto;html=1;entryX=0;entryY=0.5;entryDx=0;entryDy=0;exitX=1;exitY=0.5;exitDx=0;exitDy=0;" parent="WIyWlLk6GJQsqaUBKTNV-1" source="H1HYzyUc5aPbJVuiqZQ_-29" target="aoPp3APWdgzhh4fO1Ms5-4" edge="1">
          <mxGeometry relative="1" as="geometry">
            <mxPoint x="329.2399999999999" y="259.06000000000006" as="sourcePoint" />
          </mxGeometry>
        </mxCell>
        <mxCell id="H1HYzyUc5aPbJVuiqZQ_-8" value="" style="rounded=0;orthogonalLoop=1;jettySize=auto;html=1;entryX=0;entryY=0.5;entryDx=0;entryDy=0;exitX=0.994;exitY=0.05;exitDx=0;exitDy=0;exitPerimeter=0;" parent="WIyWlLk6GJQsqaUBKTNV-1" source="aoPp3APWdgzhh4fO1Ms5-2" target="H1HYzyUc5aPbJVuiqZQ_-7" edge="1">
          <mxGeometry relative="1" as="geometry" />
        </mxCell>
        <mxCell id="H1HYzyUc5aPbJVuiqZQ_-12" style="rounded=0;orthogonalLoop=1;jettySize=auto;html=1;entryX=0;entryY=0.5;entryDx=0;entryDy=0;exitX=1;exitY=0.25;exitDx=0;exitDy=0;" parent="WIyWlLk6GJQsqaUBKTNV-1" source="aoPp3APWdgzhh4fO1Ms5-2" target="H1HYzyUc5aPbJVuiqZQ_-9" edge="1">
          <mxGeometry relative="1" as="geometry" />
        </mxCell>
        <mxCell id="H1HYzyUc5aPbJVuiqZQ_-13" style="edgeStyle=none;rounded=0;orthogonalLoop=1;jettySize=auto;html=1;entryX=0;entryY=0.5;entryDx=0;entryDy=0;exitX=1;exitY=0.508;exitDx=0;exitDy=0;exitPerimeter=0;" parent="WIyWlLk6GJQsqaUBKTNV-1" source="aoPp3APWdgzhh4fO1Ms5-2" target="H1HYzyUc5aPbJVuiqZQ_-10" edge="1">
          <mxGeometry relative="1" as="geometry">
            <mxPoint x="530" y="170" as="sourcePoint" />
          </mxGeometry>
        </mxCell>
        <mxCell id="H1HYzyUc5aPbJVuiqZQ_-14" style="edgeStyle=none;rounded=0;orthogonalLoop=1;jettySize=auto;html=1;entryX=0;entryY=0.5;entryDx=0;entryDy=0;exitX=1;exitY=0.75;exitDx=0;exitDy=0;" parent="WIyWlLk6GJQsqaUBKTNV-1" source="aoPp3APWdgzhh4fO1Ms5-2" target="H1HYzyUc5aPbJVuiqZQ_-11" edge="1">
          <mxGeometry relative="1" as="geometry" />
        </mxCell>
        <mxCell id="aoPp3APWdgzhh4fO1Ms5-2" value="Game1" style="shape=ext;double=1;rounded=1;whiteSpace=wrap;html=1;" parent="WIyWlLk6GJQsqaUBKTNV-1" vertex="1">
          <mxGeometry x="404" y="220" width="120" height="30" as="geometry" />
        </mxCell>
        <mxCell id="Q_5Q733BVUQYewMDJgeU-6" style="rounded=0;orthogonalLoop=1;jettySize=auto;html=1;entryX=0;entryY=0.5;entryDx=0;entryDy=0;exitX=1;exitY=0.5;exitDx=0;exitDy=0;" edge="1" parent="WIyWlLk6GJQsqaUBKTNV-1" source="aoPp3APWdgzhh4fO1Ms5-4" target="Q_5Q733BVUQYewMDJgeU-2">
          <mxGeometry relative="1" as="geometry" />
        </mxCell>
        <mxCell id="Q_5Q733BVUQYewMDJgeU-7" style="rounded=0;orthogonalLoop=1;jettySize=auto;html=1;entryX=0;entryY=0.5;entryDx=0;entryDy=0;exitX=1;exitY=0.75;exitDx=0;exitDy=0;" edge="1" parent="WIyWlLk6GJQsqaUBKTNV-1" source="aoPp3APWdgzhh4fO1Ms5-4" target="Q_5Q733BVUQYewMDJgeU-3">
          <mxGeometry relative="1" as="geometry" />
        </mxCell>
        <mxCell id="Q_5Q733BVUQYewMDJgeU-8" style="rounded=0;orthogonalLoop=1;jettySize=auto;html=1;entryX=0;entryY=0.5;entryDx=0;entryDy=0;exitX=1.001;exitY=0.896;exitDx=0;exitDy=0;exitPerimeter=0;" edge="1" parent="WIyWlLk6GJQsqaUBKTNV-1" source="aoPp3APWdgzhh4fO1Ms5-4" target="Q_5Q733BVUQYewMDJgeU-4">
          <mxGeometry relative="1" as="geometry" />
        </mxCell>
        <mxCell id="Q_5Q733BVUQYewMDJgeU-9" style="edgeStyle=none;rounded=0;orthogonalLoop=1;jettySize=auto;html=1;entryX=-0.021;entryY=0.522;entryDx=0;entryDy=0;entryPerimeter=0;" edge="1" parent="WIyWlLk6GJQsqaUBKTNV-1" source="aoPp3APWdgzhh4fO1Ms5-4" target="Q_5Q733BVUQYewMDJgeU-1">
          <mxGeometry relative="1" as="geometry" />
        </mxCell>
        <mxCell id="aoPp3APWdgzhh4fO1Ms5-4" value="Game2" style="shape=ext;double=1;rounded=1;whiteSpace=wrap;html=1;" parent="WIyWlLk6GJQsqaUBKTNV-1" vertex="1">
          <mxGeometry x="404" y="285" width="120" height="30" as="geometry" />
        </mxCell>
        <mxCell id="H1HYzyUc5aPbJVuiqZQ_-18" value="" style="edgeStyle=none;rounded=0;orthogonalLoop=1;jettySize=auto;html=1;exitX=0;exitY=0.5;exitDx=0;exitDy=0;" parent="WIyWlLk6GJQsqaUBKTNV-1" source="H1HYzyUc5aPbJVuiqZQ_-29" target="H1HYzyUc5aPbJVuiqZQ_-19" edge="1">
          <mxGeometry relative="1" as="geometry">
            <mxPoint x="292.12" y="254.56000000000006" as="sourcePoint" />
            <mxPoint x="310" y="360" as="targetPoint" />
          </mxGeometry>
        </mxCell>
        <mxCell id="H1HYzyUc5aPbJVuiqZQ_-23" style="edgeStyle=none;rounded=0;orthogonalLoop=1;jettySize=auto;html=1;entryX=1;entryY=0.3333333333333333;entryDx=0;entryDy=0;entryPerimeter=0;exitX=0;exitY=0.5;exitDx=0;exitDy=0;" parent="WIyWlLk6GJQsqaUBKTNV-1" source="H1HYzyUc5aPbJVuiqZQ_-29" target="H1HYzyUc5aPbJVuiqZQ_-21" edge="1">
          <mxGeometry relative="1" as="geometry">
            <mxPoint x="290" y="265" as="sourcePoint" />
          </mxGeometry>
        </mxCell>
        <mxCell id="H1HYzyUc5aPbJVuiqZQ_-7" value="NFT 1" style="whiteSpace=wrap;html=1;rounded=1;" parent="WIyWlLk6GJQsqaUBKTNV-1" vertex="1">
          <mxGeometry x="590" y="160" width="70" height="20" as="geometry" />
        </mxCell>
        <mxCell id="H1HYzyUc5aPbJVuiqZQ_-9" value="NFT 2" style="whiteSpace=wrap;html=1;rounded=1;" parent="WIyWlLk6GJQsqaUBKTNV-1" vertex="1">
          <mxGeometry x="600" y="180" width="70" height="20" as="geometry" />
        </mxCell>
        <mxCell id="H1HYzyUc5aPbJVuiqZQ_-10" value="NFT 3" style="whiteSpace=wrap;html=1;rounded=1;" parent="WIyWlLk6GJQsqaUBKTNV-1" vertex="1">
          <mxGeometry x="610" y="200" width="70" height="20" as="geometry" />
        </mxCell>
        <mxCell id="H1HYzyUc5aPbJVuiqZQ_-11" value="NFT 4" style="whiteSpace=wrap;html=1;rounded=1;" parent="WIyWlLk6GJQsqaUBKTNV-1" vertex="1">
          <mxGeometry x="620" y="220" width="70" height="20" as="geometry" />
        </mxCell>
        <mxCell id="H1HYzyUc5aPbJVuiqZQ_-19" value="Admin 1" style="shape=umlActor;verticalLabelPosition=bottom;verticalAlign=top;html=1;outlineConnect=0;" parent="WIyWlLk6GJQsqaUBKTNV-1" vertex="1">
          <mxGeometry x="177" y="202" width="17" height="38" as="geometry" />
        </mxCell>
        <mxCell id="H1HYzyUc5aPbJVuiqZQ_-21" value="Admin 2" style="shape=umlActor;verticalLabelPosition=bottom;verticalAlign=top;html=1;outlineConnect=0;" parent="WIyWlLk6GJQsqaUBKTNV-1" vertex="1">
          <mxGeometry x="177" y="278" width="17" height="37" as="geometry" />
        </mxCell>
        <mxCell id="H1HYzyUc5aPbJVuiqZQ_-36" value="" style="edgeStyle=none;rounded=0;orthogonalLoop=1;jettySize=auto;html=1;fontSize=11;entryX=0.5;entryY=1;entryDx=0;entryDy=0;" parent="WIyWlLk6GJQsqaUBKTNV-1" source="H1HYzyUc5aPbJVuiqZQ_-29" target="H1HYzyUc5aPbJVuiqZQ_-39" edge="1">
          <mxGeometry relative="1" as="geometry">
            <mxPoint x="310" y="180" as="targetPoint" />
          </mxGeometry>
        </mxCell>
        <mxCell id="H1HYzyUc5aPbJVuiqZQ_-29" value="Company" style="ellipse;whiteSpace=wrap;html=1;fontSize=11;" parent="WIyWlLk6GJQsqaUBKTNV-1" vertex="1">
          <mxGeometry x="275" y="240" width="70" height="49" as="geometry" />
        </mxCell>
        <mxCell id="H1HYzyUc5aPbJVuiqZQ_-39" value="Account" style="rounded=0;whiteSpace=wrap;html=1;fontSize=11;" parent="WIyWlLk6GJQsqaUBKTNV-1" vertex="1">
          <mxGeometry x="250" y="160" width="120" height="20" as="geometry" />
        </mxCell>
        <mxCell id="Q_5Q733BVUQYewMDJgeU-1" value="NFT 5" style="whiteSpace=wrap;html=1;rounded=1;" vertex="1" parent="WIyWlLk6GJQsqaUBKTNV-1">
          <mxGeometry x="620" y="265" width="70" height="20" as="geometry" />
        </mxCell>
        <mxCell id="Q_5Q733BVUQYewMDJgeU-2" value="NFT 6" style="whiteSpace=wrap;html=1;rounded=1;" vertex="1" parent="WIyWlLk6GJQsqaUBKTNV-1">
          <mxGeometry x="610" y="285" width="70" height="20" as="geometry" />
        </mxCell>
        <mxCell id="Q_5Q733BVUQYewMDJgeU-3" value="NFT 7" style="whiteSpace=wrap;html=1;rounded=1;" vertex="1" parent="WIyWlLk6GJQsqaUBKTNV-1">
          <mxGeometry x="600" y="305" width="70" height="20" as="geometry" />
        </mxCell>
        <mxCell id="Q_5Q733BVUQYewMDJgeU-4" value="NFT 8" style="whiteSpace=wrap;html=1;rounded=1;" vertex="1" parent="WIyWlLk6GJQsqaUBKTNV-1">
          <mxGeometry x="590" y="325" width="70" height="20" as="geometry" />
        </mxCell>
      </root>
    </mxGraphModel>
  </diagram>
</mxfile>
